PathFileType	4	(X/Y/Z)	pose_F01_0-89.trc
DataRate	CameraRate	NumFrames	NumMarkers	Units	OrigDataRate	OrigDataStartFrame	OrigNumFrames
30	30	10	21	m	30	59	89
Frame#	Time	CHip			RHip			RKnee			RAnkle			RBigToe			RSmallToe			RHeel			LHip			LKnee			LAnkle			LBigToe			LSmallToe			LHeel			Neck			Nose			RShoulder			RElbow			RWrist			LShoulder			LElbow			LWrist			
		X1	Y1	Z1	X2	Y2	Z2	X3	Y3	Z3	X4	Y4	Z4	X5	Y5	Z5	X6	Y6	Z6	X7	Y7	Z7	X8	Y8	Z8	X9	Y9	Z9	X10	Y10	Z10	X11	Y11	Z11	X12	Y12	Z12	X13	Y13	Z13	X14	Y14	Z14	X15	Y15	Z15	X16	Y16	Z16	X17	Y17	Z17	X18	Y18	Z18	X19	Y19	Z19	X20	Y20	Z20	X21	Y21	Z21	
59	1.9666666666666666	-0.2723483944478629	1.8820185233567246	-0.5550428021965166	-0.2887164810445308	1.8796953864860568	-0.48533619371357284	-0.3070076023620135	1.7346808867893564	-0.4543703670245184													-0.254483214534529	1.8846418737526573	-0.6246838393861238	-0.23612203484961009	1.7344471966728234	-0.6964006469629539				-0.44124918619919706	1.521230380701598	-0.9745484938546997	-0.4407813295869996	1.5239691070896415	-0.972902202689888				-0.27105276877667916	2.0502595975600646	-0.5800098572919692	-0.250830566188296	2.1263782517205705	-0.5617250211833692	-0.29516773355452935	2.046994007993273	-0.4863875159144842	-0.29671762669428314	1.958957110525942	-0.4709005200727949	-0.3053769296762425	1.8824083493659438	-0.4154913586293478	-0.24377687471294415	2.053951987911585	-0.673010832934486	-0.2446256228010445	1.9579534327587187	-0.6840985378467124	-0.2401225480787906	1.8739525807677522	-0.6840598489360381
60	2.0	-0.2666007711673423	1.88206880715747	-0.5735016176521233	-0.2784510889412436	1.8805955831450323	-0.5049334635529312	-0.3070076023620135	1.7346808867893564	-0.4543703670245184													-0.24833996941307768	1.8859046021438828	-0.643158134822075	-0.23353038968032805	1.733630774667743	-0.704859642627315				-0.44124918619919706	1.521230380701598	-0.9745484938546997	-0.4407813295869996	1.5239691070896415	-0.972902202689888				-0.26558858905020993	2.049325385346472	-0.597517062909961	-0.2465302231460403	2.127071532955194	-0.5825961960853853	-0.28843188639285383	2.0449335554650916	-0.5059112611791323	-0.2914297933551092	1.9572519632185927	-0.48970482528104076	-0.2979064316026297	1.879422797651667	-0.43512040641363	-0.23780547036938868	2.0538343487608377	-0.691267704329834	-0.2362171775485534	1.9665942731117483	-0.7159193689867352	-0.22032489536385483	1.8816861870493202	-0.7247170118549937
61	2.033333333333333	-0.24401784147766553	1.8854499196604073	-0.6102100783502348	-0.25977459059540653	1.8844530246110556	-0.5423561775991701	-0.3070076023620135	1.7346808867893564	-0.4543703670245184													-0.22690473606913317	1.8869313618028112	-0.6777166318449072	-0.23093874451104604	1.732814352662663	-0.7133186382916763				-0.44124918619919706	1.521230380701598	-0.9745484938546997	-0.4407813295869996	1.5239691070896415	-0.972902202689888				-0.24914660829340013	2.0535474697077665	-0.6351829718732194	-0.23914404807644193	2.1263930336104795	-0.6026026784117152	-0.27129284457412073	2.0462086524727243	-0.5371423001267082	-0.28614196001593534	1.9555468159112432	-0.5085091304892866	-0.29043593352901687	1.8764372459373904	-0.45474945419791224	-0.22098014090603926	2.0580307010414103	-0.7318952157907891	-0.2102427171829042	1.9743409051973377	-0.7584207100115797	-0.20056287237444276	1.8879196568740384	-0.7294641504606116
62	2.066666666666667	-0.23924896439094304	1.8831892872076956	-0.6317537397046636	-0.2523745995639947	1.879730118210039	-0.5628297122502358	-0.3070076023620135	1.7346808867893564	-0.4543703670245184													-0.21958522781619882	1.8865582859561998	-0.701727041290441	-0.228347099341764	1.7319979306575826	-0.7217776339560374				-0.44124918619919706	1.521230380701598	-0.9745484938546997	-0.4407813295869996	1.5239691070896415	-0.972902202689888				-0.24131970476964593	2.0537828996091223	-0.6555060643869693	-0.23919191035532558	2.1206799438545665	-0.6102753331469454	-0.26196770165788463	2.048196394286332	-0.5593023833538975	-0.28085412667676146	1.953841668603894	-0.5273134356975325	-0.282965435455404	1.8734516942231136	-0.47437850198219444	-0.21779911897710727	2.059352988763193	-0.7511440112170076	-0.20162246436893852	1.9745236496969096	-0.8107872705526546	-1.241362610656854	1.8624618367268695	0.3192555049727379
63	2.1	-0.23718679802633383	1.8881741478384375	-0.6548648781172062	-0.25282731348062276	1.885872684552222	-0.5840222433034665	-0.3070076023620135	1.7346808867893564	-0.4543703670245184													-0.22004517568458634	1.8896233408575331	-0.725404881537468	-0.225755454172482	1.7311815086525022	-0.7302366296203986				-0.44124918619919706	1.521230380701598	-0.9745484938546997	-0.4407813295869996	1.5239691070896415	-0.972902202689888				-0.23809125724356417	2.0549323344739423	-0.6826744006530806	-0.23383289058062823	2.123584509671582	-0.6210329729756477	-0.2614953469541521	2.0477641025991233	-0.584045802485292	-0.27556629333758753	1.9521365212965445	-0.5461177409057784	-0.27549493738179115	1.870466142508837	-0.4940075497664767	-0.21142408776387084	2.0631318042350943	-0.7806373244929137	-0.19160021644138933	1.9832889540208951	-0.8312778412956525	-1.1794524790838232	1.891204862186648	0.2018177858478067
64	2.1333333333333333	-0.2342822719112386	1.8917730724790303	-0.674576628971664	-0.24918195541674934	1.8893399882441526	-0.6008461834789527	-0.3070076023620135	1.7346808867893564	-0.4543703670245184													-0.21827040510014878	1.8951943725487734	-0.7399717306389582	-0.22316380900319996	1.7303650866474218	-0.7386956252847597				-0.44124918619919706	1.521230380701598	-0.9745484938546997	-0.4407813295869996	1.5239691070896415	-0.972902202689888				-0.23352928074513996	2.0588559573904517	-0.6968403703032292	-0.23041927140191037	2.1229754213787753	-0.6368926923904628	-0.25744156450985306	2.0541416068609006	-0.5993329047597449	-1.5238034234396975	1.8703734867251673	0.7488848981781683	-0.26993685680302154	1.8818539371315328	-0.5143648493041256	-0.20941778838623626	2.0649308528177475	-0.7945193362654628	-0.18597418250025574	1.9888175163792798	-0.8224043152595164	-0.20512218587525816	2.0397769415885576	-0.7125517079952371
65	2.1666666666666665	-0.23143905070504053	1.891874412052338	-0.6854176924283459	-0.2454415246723969	1.891476733208059	-0.6172699200323376	-0.3070076023620135	1.7346808867893564	-0.4543703670245184													-0.213912461730814	1.894084661957849	-0.7557966963888987	-0.22304956188347966	1.7317374951169069	-0.7429673274450772				-0.44124918619919706	1.521230380701598	-0.9745484938546997	-0.4407813295869996	1.5239691070896415	-0.972902202689888				-0.2332585560491839	2.0614625555157673	-0.7164238519218009	-0.22253616386933214	2.1198976886167222	-0.6561986131519149	-0.25566642744411555	2.055546071394311	-0.6294136541478885	-1.4989223889808003	1.8727349727860967	0.698137125801895	-0.26045479981374897	1.8847222540031445	-0.5458527491864378	-0.20587062758869396	2.0672339041037326	-0.8134811552012712	-0.1843000244613522	1.9930816116735293	-0.8052822667004053	-0.20896093551033057	2.040836400964355	-0.7163256684499332
66	2.2	-0.22928949670866616	1.893043274623067	-0.687981534946197	-0.24448097092254667	1.8925780871641837	-0.6227002148569826	-0.3070076023620135	1.7346808867893564	-0.4543703670245184													-0.21159234762948367	1.8950447089393445	-0.7581630782941168	-0.22293531476375933	1.7331099035863917	-0.7472390296053948				-0.44124918619919706	1.521230380701598	-0.9745484938546997	-0.4407813295869996	1.5239691070896415	-0.972902202689888				-0.23162753634983035	2.0627512331911495	-0.7301272362465655	-0.21189499921301208	2.125800793733259	-0.687923321880594	-0.25834173852240466	2.0584714972198053	-0.6392555261038533	-1.1904527106970373	1.8982992370702587	0.3701204961252528	-0.2614827609807716	1.89159857107443	-0.5476839597907404	-0.2012999930436088	2.068417549583082	-0.8184627994795592	-0.1898876287171495	1.9978179063093622	-0.793403088671524	-0.21121777574341638	2.0373375667502045	-0.713307805214766
67	2.2333333333333334	-0.22813220271874993	1.889465508231949	-0.6929994653009636	-0.24230886790856931	1.8894455287220404	-0.6244940265418987	-0.3070076023620135	1.7346808867893564	-0.4543703670245184													-0.2113204881188697	1.8920834259915258	-0.7662563641129895	-0.22282106764403903	1.7344823120558768	-0.7515107317657123				-0.44124918619919706	1.521230380701598	-0.9745484938546997	-0.4407813295869996	1.5239691070896415	-0.972902202689888				-0.22947434715952125	2.0618563579349813	-0.7326167319125052	-0.20091697900850822	2.1269479354877214	-0.7176682521577564	-0.2542122193837207	2.0579982017139833	-0.6434782509918959	-0.8819830324132745	1.9238635013544205	0.04210386644861053	-0.26251072214779425	1.8984748881457159	-0.5495151703950429	-0.20063418360795346	2.0678342499740334	-0.8266658888097589	-0.1892412583705463	1.9956842357506188	-0.7699731718962046	-0.21418508710209969	2.056380492422281	-0.7282521519270875
68	2.2666666666666666	-0.22172606486032717	1.891486341153625	-0.6998157522339558	-0.24027678421497325	1.8920735221722476	-0.6271926983013162	-0.3070076023620135	1.7346808867893564	-0.4543703670245184													-0.20837821632415918	1.8934878651568214	-0.7660247140017787	-0.22270682052431873	1.7358547205253618	-0.7557824339260297				-0.44124918619919706	1.521230380701598	-0.9745484938546997	-0.4407813295869996	1.5239691070896415	-0.972902202689888				-0.22815441460102115	2.0610334568291675	-0.7378214802434242	-0.19711403541281192	2.1309867720034443	-0.7444822968386089	-0.2541488558629351	2.0580265661589023	-0.6436592868531081	-0.5735133541295115	1.9494277656385823	-0.2859127632280317	-0.2635386833148169	1.9053512052170014	-0.5513463809993454	-0.19833993783345671	2.0664306567637274	-0.8286088988104502	-0.18946254106826219	1.989195119202006	-0.7699468121767622	-0.21614313769192778	2.0431043133735947	-0.7012917579478883
